# xmcd
#
# Track frame offsets:
#	150
#	13988
#	31000
#	40038
#	65708
#	84060
#	103126
#	121263
#	142176
#	162692
#	176323
#	190743
#	204523
#	222855
#	252311
#	262089
#	279873
#	285841
#	301374
#	319475
#	339661
#
# Disc length: 4719 seconds
#
# Revision: 0
# Processed by: cddbd v1.5.1PL0 Copyright (c) Steve Scherf et al.
# Submitted via: dBpowerAMP V4.0
#
DISCID=34126d15
DTITLE=Stefan Hrusca - Stefan Hrusca
DYEAR=1900
DGENRE=
TTITLE0=Ce-ati vazut pastori?
TTITLE1=Cerul si pamantul
TTITLE2=Florile-s dalbe
TTITLE3=Raiule, gradina verde
TTITLE4=clondaa
TTITLE5=Veniti la Viflaim
TTITLE6=Deschide usa crestine
TTITLE7=colindab
TTITLE8=Ziurel de ziua
TTITLE9=La Viflaim, la Viflaim
TTITLE10=Leru-i ler
TTITLE11=colindac
TTITLE12=colindad
TTITLE13=O, ce veste minunata!
TTITLE14=Florile dalbe
TTITLE15=Sculati gazde
TTITLE16=colindas
TTITLE17=Colinda1
TTITLE18=Colinda2
TTITLE19=Colinda3
TTITLE20=Colinda4
EXTD=Stefan Hrusca
EXTT0=
EXTT1=
EXTT2=
EXTT3=
EXTT4=
EXTT5=
EXTT6=
EXTT7=
EXTT8=
EXTT9=
EXTT10=
EXTT11=
EXTT12=
EXTT13=
EXTT14=
EXTT15=
EXTT16=
EXTT17=
EXTT18=
EXTT19=
EXTT20=
PLAYORDER=
